<?xml version="1.0" encoding="UTF-8"?>
<svg id="Camada_2" data-name="Camada 2" xmlns="http://www.w3.org/2000/svg" viewBox="0 0 650.52 645.79">
  <defs>
    <style>
      .cls-1 {
        fill: #1d1d1b;
      }
    </style>
  </defs>
  <g id="Camada_1-2" data-name="Camada 1">
    <polygon class="cls-1" points="0 311.21 188.49 219.07 188.49 51.98 0 51.98 0 311.21"/>
    <polygon class="cls-1" points="649.82 592.11 649.82 332.25 477.54 416.46 477.54 592.11 649.82 592.11"/>
    <polygon class="cls-1" points="650.52 144.48 650.52 332.17 634.15 340.27 478.24 417.42 461.87 425.52 354.94 478.43 249.11 426.07 247.98 425.5 247.98 396.77 354.94 344.68 359.24 342.58 549.14 250.09 549.14 226.54 372.4 141.55 354.94 133.15 247.98 81.73 247.98 52.27 249.11 51.72 354.92 0 461.87 52.27 478.24 60.27 634.15 136.48 650.52 144.48"/>
    <polygon class="cls-1" points="401.26 219.62 401.26 249.08 294.32 300.5 276.84 308.9 100.09 393.9 100.09 417.44 289.99 509.94 294.32 512.03 401.26 564.12 401.26 592.88 294.32 645.79 188.49 593.42 187.36 592.86 0 500.17 0 311.21 187.36 219.62 188.49 219.07 294.3 167.35 401.26 219.62"/>
  </g>
</svg>